<?xml version="1.0" standalone="no"?>
<!DOCTYPE svg PUBLIC "-//W3C//DTD SVG 20010904//EN"
 "http://www.w3.org/TR/2001/REC-SVG-20010904/DTD/svg10.dtd">
<svg version="1.0" xmlns="http://www.w3.org/2000/svg"
 width="10px" height="10px" viewBox="0 0 512.000000 512.000000"
 preserveAspectRatio="xMidYMid meet">

<g transform="translate(0.000000,512.000000) scale(0.100000,-0.100000)"
fill="#46C2AD" stroke="none">
<path d="M10 2431 c0 -77 23 -265 46 -381 109 -541 412 -1058 832 -1421 373
-321 819 -525 1313 -600 202 -30 515 -31 714 0 401 60 736 188 1060 404 657
438 1089 1182 1132 1950 l6 117 -1439 0 -1439 0 442 -442 c243 -244 447 -456
452 -471 44 -117 -55 -240 -177 -222 -44 6 -56 16 -207 163 -498 489 -929 921
-943 945 l-16 27 -888 0 -888 0 0 -69z"/>
</g>
</svg>
