<?xml version="1.0" standalone="no"?>
<!DOCTYPE svg PUBLIC "-//W3C//DTD SVG 20010904//EN"
 "http://www.w3.org/TR/2001/REC-SVG-20010904/DTD/svg10.dtd">
<svg version="1.0" xmlns="http://www.w3.org/2000/svg"
 width="30px" height="30px" viewBox="0 0 512.000000 512.000000"
 preserveAspectRatio="xMidYMid meet">

<g transform="translate(0.000000,512.000000) scale(0.100000,-0.100000)"
fill="#46C2AD" stroke="none">
<path d="M2375 4794 c-108 -11 -262 -38 -367 -65 -756 -187 -1380 -789 -1596
-1539 -68 -235 -87 -373 -86 -635 0 -249 16 -372 78 -598 206 -746 807 -1347
1553 -1553 224 -61 349 -77 598 -78 242 -1 343 11 559 65 621 155 1161 592
1453 1174 90 179 172 440 209 670 25 152 25 485 1 645 -152 989 -906 1744
-1892 1896 -97 15 -428 26 -510 18z m763 -904 c69 -42 95 -148 53 -215 -10
-16 -219 -272 -465 -569 -245 -296 -446 -542 -446 -546 0 -4 201 -250 446
-546 246 -297 455 -552 465 -569 26 -41 25 -120 -1 -163 -42 -69 -147 -95
-216 -53 -31 19 -1014 1198 -1046 1255 -10 17 -18 51 -18 76 0 25 8 59 18 76
32 57 1015 1236 1046 1255 42 26 121 25 164 -1z"/>
</g>
</svg>
