<?xml version="1.0" standalone="no"?>
<!DOCTYPE svg PUBLIC "-//W3C//DTD SVG 20010904//EN"
 "http://www.w3.org/TR/2001/REC-SVG-20010904/DTD/svg10.dtd">
<svg version="1.0" xmlns="http://www.w3.org/2000/svg"
 width="30px" height="30px" viewBox="0 0 512.000000 512.000000"
 preserveAspectRatio="xMidYMid meet">

<g transform="translate(0.000000,512.000000) scale(0.100000,-0.100000)"
fill="#46C2AD" stroke="#46C2AD">
<path d="M2380 4794 c-197 -23 -303 -43 -450 -86 -723 -208 -1310 -795 -1518
-1518 -67 -232 -86 -372 -86 -630 0 -258 19 -398 86 -630 216 -751 836 -1349
1595 -1539 214 -54 316 -66 558 -65 238 0 365 16 569 69 616 160 1157 605
1436 1180 104 215 161 392 202 635 29 168 31 510 5 675 -82 506 -307 941 -664
1286 -334 322 -730 521 -1198 600 -115 19 -445 34 -535 23z m370 -324 c581
-61 1098 -374 1416 -861 580 -884 330 -2074 -557 -2656 -219 -143 -465 -238
-749 -290 -133 -24 -467 -24 -600 0 -210 38 -351 83 -529 168 -400 191 -709
501 -901 901 -84 176 -129 318 -167 528 -24 133 -24 467 0 600 39 211 83 352
168 529 184 384 485 693 863 883 223 112 417 168 701 201 65 8 265 6 355 -3z"/>
<path d="M1470 3048 c-61 -31 -95 -97 -85 -166 6 -46 13 -54 553 -594 483
-483 551 -548 585 -553 93 -17 66 -40 659 553 536 537 547 548 553 593 17 114
-83 208 -197 184 -27 -6 -125 -99 -506 -478 l-472 -472 -468 467 c-257 257
-480 472 -495 478 -43 16 -78 12 -127 -12z"/>
</g>
</svg>
