<svg width="200" height="52" viewBox="0 0 222 52" fill="none" xmlns="http://www.w3.org/2000/svg">
<path d="M82.5198 34.8573V24.0139H69.2238V34.8573C69.2238 35.7353 68.7091 36.306 67.9157 36.306C67.1222 36.306 66.6504 35.7353 66.6504 34.8573V11.7657C66.6504 10.8877 67.1222 10.317 67.9157 10.317C68.7091 10.317 69.2238 10.8877 69.2238 11.7657V21.5994H82.5198V11.7657C82.5198 10.8877 83.013 10.317 83.8065 10.317C84.6 10.317 85.0932 10.8877 85.0932 11.7657V34.8354C85.0932 35.7134 84.6 36.2841 83.8065 36.2841C83.013 36.2841 82.5198 35.7353 82.5198 34.8573Z" fill="#5076DB"/>
<path d="M89.2753 24.848C89.2753 19.6019 92.4921 16.1558 97.0814 16.1558C101.542 16.1558 104.694 19.4922 104.694 24.5627C104.694 26.3626 104.373 26.9114 103.236 26.9114H91.8273V27.9869C91.8273 31.8282 93.9933 34.111 97.4674 34.111C99.5476 34.111 100.813 33.2111 101.735 32.2453C102.55 31.4111 102.764 31.2794 103.193 31.2794C103.772 31.2794 104.223 31.7843 104.223 32.4209C104.223 32.9477 103.837 33.7818 103.193 34.4183C102.035 35.6695 99.8478 36.4597 97.3387 36.4597C92.3206 36.4597 89.2539 33.233 89.2539 27.8552V24.848H89.2753ZM102.164 24.6724V24.6066C102.164 20.8092 100.191 18.4605 97.0814 18.4605C93.9504 18.4605 91.8273 20.897 91.8273 24.6066V24.6724H102.164Z" fill="#5076DB"/>
<path d="M113.701 36.4377C109.97 36.4377 107.461 34.0232 107.461 30.4453C107.461 26.8894 109.949 24.7163 114.109 24.7163H119.449V22.5652C119.449 19.8434 117.862 18.4166 114.902 18.4166C113.101 18.4166 111.836 19.119 110.721 20.6336C110.335 21.1384 109.991 21.2921 109.498 21.2921C108.898 21.2921 108.49 20.875 108.49 20.2165C108.49 19.1849 109.305 18.0654 110.699 17.1874C111.793 16.5069 113.208 16.1338 115.053 16.1338C119.513 16.1338 121.979 18.3947 121.979 22.4774V34.7914C121.979 35.6914 121.529 36.2402 120.757 36.2402C119.985 36.2402 119.535 35.6914 119.535 34.7914V33.2988H119.427C118.334 35.2744 116.211 36.4377 113.701 36.4377ZM114.302 34.1768C117.218 34.1768 119.427 32.1135 119.427 29.4137V26.9991H114.152C111.536 26.9991 110.056 28.2283 110.056 30.4234C110.056 32.6623 111.75 34.1768 114.302 34.1768Z" fill="#5076DB"/>
<path d="M126.633 34.8574V10.4927C126.633 9.52685 127.19 9.04395 127.898 9.04395C128.606 9.04395 129.163 9.5049 129.163 10.4927V34.8354C129.163 35.8012 128.606 36.2841 127.898 36.2841C127.19 36.2841 126.633 35.8232 126.633 34.8574Z" fill="#5076DB"/>
<path d="M135.125 18.724H133.388C132.659 18.724 132.188 18.2849 132.188 17.6264C132.188 16.924 132.638 16.507 133.388 16.507H135.125V12.973C135.125 12.073 135.597 11.5243 136.391 11.5243C137.184 11.5243 137.656 12.073 137.656 12.973V16.507H140.787C141.538 16.507 141.988 16.924 141.988 17.6264C141.988 18.3069 141.516 18.724 140.787 18.724H137.656V31.2795C137.656 33.4745 138.321 34.111 140.251 34.111C140.873 34.111 141.237 34.0452 141.58 34.0452C142.181 34.0452 142.61 34.4183 142.61 35.0329C142.61 35.4939 142.395 35.867 141.924 36.0646C141.495 36.2621 140.851 36.3938 139.843 36.3938C136.412 36.3938 135.125 35.0768 135.125 31.1258V18.724Z" fill="#5076DB"/>
<path d="M159.379 36.2841C158.585 36.2841 158.135 35.7354 158.135 34.8354V23.5311C158.135 20.3483 156.398 18.4825 153.481 18.4825C150.157 18.4825 147.991 20.9848 147.991 24.9359V34.8354C147.991 35.7354 147.52 36.2841 146.726 36.2841C145.933 36.2841 145.461 35.7354 145.461 34.8354V10.4927C145.461 9.61465 145.933 9.04395 146.726 9.04395C147.52 9.04395 147.991 9.61465 147.991 10.4927V20.1507H148.12C148.806 17.7801 151.273 16.1558 154.189 16.1558C158.199 16.1558 160.666 18.6801 160.666 22.7628V34.8354C160.666 35.7354 160.172 36.2841 159.379 36.2841Z" fill="#5076DB"/>
<path d="M164.848 33.5622V14.2022C164.848 11.5462 165.834 10.5145 168.429 10.5145H174.755C179.966 10.5145 183.312 13.851 183.312 18.9214C183.312 24.2114 179.924 27.3503 174.562 27.3503H169.823V33.5842C169.823 35.3182 168.901 36.3279 167.335 36.3279C165.748 36.284 164.848 35.2743 164.848 33.5622ZM172.975 23.3773C176.814 23.3773 178.38 22.2359 178.38 18.9653C178.38 16.1557 176.835 14.5314 174.133 14.5314H169.801V23.3554H172.975V23.3773Z" fill="#5076DB"/>
<path d="M200.318 36.2841C198.753 36.2841 197.895 35.3183 197.895 33.5623V24.1237C197.895 21.5116 196.565 20.0409 194.314 20.0409C191.848 20.0409 190.218 21.9726 190.218 25.0236V33.5623C190.218 35.2963 189.338 36.2841 187.794 36.2841C186.25 36.2841 185.393 35.3183 185.393 33.5623V11.7438C185.393 10.0097 186.25 9 187.816 9C189.36 9 190.218 9.98776 190.218 11.7438V19.7117H190.454C191.118 17.4508 193.499 15.8924 196.265 15.8924C200.318 15.8924 202.742 18.4825 202.742 22.8067V33.5623C202.742 35.2963 201.862 36.2841 200.318 36.2841Z" fill="#5076DB"/>
<path d="M206.58 39.4229C206.966 39.4229 207.288 39.5107 207.846 39.5107C208.939 39.5107 209.861 38.6766 210.269 37.4035C210.333 37.2937 210.505 36.4596 210.505 36.3279L204.8 19.7555C204.607 19.2068 204.564 18.7897 204.564 18.4166C204.564 17.0776 205.572 16.0898 206.945 16.0898C208.253 16.0898 209.068 16.8581 209.454 18.4605L213.228 32.0257H213.421L217.239 18.4605C217.646 16.8581 218.439 16.0898 219.705 16.0898C221.034 16.0898 221.999 17.0557 221.999 18.3946C221.999 18.7678 221.935 19.1629 221.721 19.7555L215.866 36.9206C214.343 41.3765 212.092 43.2203 208.189 43.2203C206.923 43.2203 205.937 42.913 205.358 42.3642C205.015 42.013 204.822 41.5521 204.822 41.0252C204.843 40.1033 205.551 39.4229 206.58 39.4229Z" fill="#5076DB"/>
<path d="M9.77824 32.4474C2.89436 27.4208 1.26453 17.653 6.17546 10.585C11.065 3.53903 20.6295 1.89277 27.5134 6.89741L47.5646 22.1528L38.6863 40.6568L29.2075 48.5808L9.77824 32.4474Z" fill="#5A7EE0"/>
<path d="M50.4809 8.60954C44.4977 2.46349 34.7831 2.46349 28.7999 8.60954C22.8167 14.7336 22.8167 24.6771 28.7999 30.8231C34.7831 36.9472 44.4977 36.9472 50.5024 30.8231C56.4856 24.6771 56.4856 14.7336 50.4809 8.60954Z" fill="#BDCBF8"/>
<path d="M28.8008 30.8013C33.2399 35.4108 33.1541 42.8739 29.2297 48.559L49.5811 31.6573L28.8008 30.8013Z" fill="#BDCBF8"/>
<path d="M33.9906 18.4431C33.3687 18.4431 32.9184 19.0138 33.0256 19.6504C33.5832 22.8771 36.3496 25.3135 39.6521 25.3135C42.9547 25.3135 45.7211 22.8771 46.2787 19.6504C46.3859 19.0358 45.9356 18.4431 45.3136 18.4431H33.9906Z" fill="#5A7EE0"/>
<path d="M14.1966 31.0426C12.4381 29.572 9.8432 29.8354 8.40637 31.6353C6.96955 33.4352 8.14903 34.9498 9.90753 36.4205C11.666 37.8911 13.3602 38.7691 14.797 36.9692C16.2338 35.1912 15.9551 32.5133 14.1966 31.0426Z" fill="#BDCBF8"/>
</svg>
